<svg xmlns="http://www.w3.org/2000/svg" xmlns:xlink="http://www.w3.org/1999/xlink" version="1.1" viewBox="0 0 3270 2408" style="background: #ffffff"><style id="v-3" type="text/css">
        .joint-element .scalable * {
            vector-effect: non-scaling-stroke;
        }
    </style><defs joint-selector="defs"><marker id="v-2-527367903" orient="auto" overflow="visible" markerUnits="userSpaceOnUse"><path id="v-89" stroke="#cccccc" fill="#cccccc" transform="rotate(180)" d="M 20 -10 0 0 20 10 Z"></path></marker><marker id="v-21252848929" orient="auto" overflow="visible" markerUnits="userSpaceOnUse"><path id="v-6906" stroke="#444444" fill="#444444" transform="rotate(180)" d="M 20 -10 0 0 20 10 Z"></path></marker></defs><g joint-selector="layers"  transform="matrix(1,0,0,1,0,0)"><g  style="pointer-events: none;"></g><g ></g><g  style="-webkit-user-select: none;"><!--z-index:0--><!--z-index:1--><!--z-index:2--><!--z-index:3--><!--z-index:4--><!--z-index:5--><!--z-index:6--><!--z-index:7--><!--z-index:8--><!--z-index:9--><!--z-index:10--><!--z-index:11--><!--z-index:12--><!--z-index:13--><!--z-index:14--><!--z-index:15--><!--z-index:16--><!--z-index:17--><!--z-index:18--><!--z-index:19--><!--z-index:20--><g   id="j_730"  transform="translate(20,2364)"><g id="v-7418"><text  id="v-7419" font-size="24px" xml:space="preserve" y="0.8em" font-weight="normal" text-anchor="start" fill="#444444" pointer-events="none" display="block" font-family="Tahoma, Verdana, Helvetica, Arial"><tspan dy="0" >Monday, February 9, 2026 at 7:53 PM Central European Standard Time</tspan></text></g></g><!--z-index:21--><g   id="j_729"  transform="translate(20,2330)"><g id="v-7416"><text  id="v-7417" font-size="24px" xml:space="preserve" y="0.8em" font-weight="normal" text-anchor="start" fill="#444444" pointer-events="none" display="block" font-family="Tahoma, Verdana, Helvetica, Arial"><tspan dy="0" >High-level split: React Client, Backend API, Workers, and DB.</tspan></text></g></g><!--z-index:22--><g   id="j_728"  transform="translate(20,2284)"><g id="v-7414"><text  id="v-7415" font-size="36px" xml:space="preserve" y="0.8em" font-weight="normal" text-anchor="start" fill="#444444" pointer-events="none" display="block" font-family="Tahoma, Verdana, Helvetica, Arial"><tspan dy="0" >Memorise - Container Architecture</tspan></text></g></g><!--z-index:23--><g   id="j_731"  transform="translate(195,1120)" style=""><g  id="v-7423" style="opacity: 1;"><rect  x="0" y="160" width="400" height="240" rx="70" id="v-7425" stroke-width="2" pointer-events="visiblePainted" fill="#0d47a1" stroke="#0c4091" stroke-dasharray=""></rect><circle  cx="200" cy="88.88888888888889" r="88.88888888888889" id="v-7424" stroke-width="2" pointer-events="visiblePainted" fill="#0d47a1" stroke="#0c4091" stroke-dasharray=""></circle><line  x1="80" y1="266.6666666666667" x2="80" y2="400" id="v-7431" stroke="#0c4091" stroke-width="1" stroke-dasharray=""></line><line  x1="320" y1="266.6666666666667" x2="320" y2="400" id="v-7432" stroke="#0c4091" stroke-width="1" stroke-dasharray=""></line><text  id="v-7426" font-size="33.599999999999994px" xml:space="preserve" y="202.5" font-weight="bold" text-anchor="middle" pointer-events="visible" font-family="Tahoma, Verdana, Helvetica, Arial" fill="#ffffff" dominant-baseline="hanging" transform="matrix(1,0,0,1,200,0)"><tspan dy="0" >Annotator</tspan></text><text  id="v-7427" font-size="16.799999999999997px" xml:space="preserve" y="244.1" text-anchor="middle" font-family="Tahoma, Verdana, Helvetica, Arial" fill="#ffffff" dominant-baseline="hanging" transform="matrix(1,0,0,1,200,0)" style="display: block;"><tspan dy="0" >[Person]</tspan></text><text  id="v-7428" font-size="24px" xml:space="preserve" y="275.9" text-anchor="middle" font-family="Tahoma, Verdana, Helvetica, Arial" fill="#ffffff" dominant-baseline="hanging" transform="matrix(1,0,0,1,200,0)" style="display: block;"><tspan dy="0" >A user who annotates text,</tspan><tspan dy="1.2em" x="0" >manages workspaces, and</tspan><tspan dy="1.2em" x="0" >exports data.</tspan></text><g  id="v-7429" font-weight="normal" text-anchor="middle" color="#ffffff" transform="matrix(1,0,0,1,197.5,368)" display="none"><g ></g><g ></g><g ></g><g ></g></g><image  id="v-7430"></image></g></g><!--z-index:24--><g   id="j_732"  transform="translate(199,1746)" style=""><g  id="v-7436" style="opacity: 1;"><rect  x="0" y="160" width="400" height="240" rx="70" id="v-7438" stroke-width="2" pointer-events="visiblePainted" fill="#0d47a1" stroke="#0c4091" stroke-dasharray=""></rect><circle  cx="200" cy="88.88888888888889" r="88.88888888888889" id="v-7437" stroke-width="2" pointer-events="visiblePainted" fill="#0d47a1" stroke="#0c4091" stroke-dasharray=""></circle><line  x1="80" y1="266.6666666666667" x2="80" y2="400" id="v-7444" stroke="#0c4091" stroke-width="1" stroke-dasharray=""></line><line  x1="320" y1="266.6666666666667" x2="320" y2="400" id="v-7445" stroke="#0c4091" stroke-width="1" stroke-dasharray=""></line><text  id="v-7439" font-size="33.599999999999994px" xml:space="preserve" y="202.5" font-weight="bold" text-anchor="middle" pointer-events="visible" font-family="Tahoma, Verdana, Helvetica, Arial" fill="#ffffff" dominant-baseline="hanging" transform="matrix(1,0,0,1,200,0)"><tspan dy="0" >Administrator</tspan></text><text  id="v-7440" font-size="16.799999999999997px" xml:space="preserve" y="244.1" text-anchor="middle" font-family="Tahoma, Verdana, Helvetica, Arial" fill="#ffffff" dominant-baseline="hanging" transform="matrix(1,0,0,1,200,0)" style="display: block;"><tspan dy="0" >[Person]</tspan></text><text  id="v-7441" font-size="24px" xml:space="preserve" y="275.9" text-anchor="middle" font-family="Tahoma, Verdana, Helvetica, Arial" fill="#ffffff" dominant-baseline="hanging" transform="matrix(1,0,0,1,200,0)" style="display: block;"><tspan dy="0" >A user who manages system</tspan><tspan dy="1.2em" x="0" >configuration and infrastructure</tspan><tspan dy="1.2em" x="0" >settings.</tspan></text><g  id="v-7442" font-weight="normal" text-anchor="middle" color="#ffffff" transform="matrix(1,0,0,1,197.5,368)" display="none"><g ></g><g ></g><g ></g><g ></g></g><image  id="v-7443"></image></g></g><!--z-index:25--><g   id="j_733"  transform="translate(2569,143)" style=""><g  id="v-7449" style="opacity: 1;"><rect  id="v-7450" rx="20" ry="20" stroke-width="2" pointer-events="visiblePainted" fill="#ffebee" stroke="#b71c1c" stroke-dasharray="" width="450" height="300"></rect><text  id="v-7451" font-size="33.599999999999994px" xml:space="preserve" y="86.9" font-weight="bold" text-anchor="middle" pointer-events="visible" font-family="Tahoma, Verdana, Helvetica, Arial" fill="#b71c1c" dominant-baseline="hanging" transform="matrix(1,0,0,1,225,0)"><tspan dy="0" >External APIs</tspan></text><text  id="v-7452" font-size="16.799999999999997px" xml:space="preserve" y="128.5" text-anchor="middle" font-family="Tahoma, Verdana, Helvetica, Arial" fill="#b71c1c" dominant-baseline="hanging" transform="matrix(1,0,0,1,225,0)" style="display: block;"><tspan dy="0" >[Software System]</tspan></text><text  id="v-7453" font-size="24px" xml:space="preserve" y="160.3" text-anchor="middle" font-family="Tahoma, Verdana, Helvetica, Arial" fill="#b71c1c" dominant-baseline="hanging" transform="matrix(1,0,0,1,225,0)" style="display: block;"><tspan dy="0" >External ML/Translation APIs (NER,</tspan><tspan dy="1.2em" x="0" >Seg, Classify)</tspan></text><g  id="v-7454" color="#b71c1c" transform="matrix(1,0,0,1,222.5,268)" display="none"><g ></g><g ></g><g ></g><g ></g></g><image  id="v-7455"></image></g></g><!--z-index:26--><g   id="j_734"  transform="translate(2569,493)" style=""><g  id="v-7459" style="opacity: 1;"><rect  id="v-7460" rx="20" ry="20" stroke-width="2" pointer-events="visiblePainted" fill="#ffebee" stroke="#b71c1c" stroke-dasharray="" width="450" height="300"></rect><text  id="v-7461" font-size="33.599999999999994px" xml:space="preserve" y="86.9" font-weight="bold" text-anchor="middle" pointer-events="visible" font-family="Tahoma, Verdana, Helvetica, Arial" fill="#b71c1c" dominant-baseline="hanging" transform="matrix(1,0,0,1,225,0)"><tspan dy="0" >Storage</tspan></text><text  id="v-7462" font-size="16.799999999999997px" xml:space="preserve" y="128.5" text-anchor="middle" font-family="Tahoma, Verdana, Helvetica, Arial" fill="#b71c1c" dominant-baseline="hanging" transform="matrix(1,0,0,1,225,0)" style="display: block;"><tspan dy="0" >[Software System]</tspan></text><text  id="v-7463" font-size="24px" xml:space="preserve" y="160.3" text-anchor="middle" font-family="Tahoma, Verdana, Helvetica, Arial" fill="#b71c1c" dominant-baseline="hanging" transform="matrix(1,0,0,1,225,0)" style="display: block;"><tspan dy="0" >Physical Storage (File System,</tspan><tspan dy="1.2em" x="0" >MSSQL, S3)</tspan></text><g  id="v-7464" color="#b71c1c" transform="matrix(1,0,0,1,222.5,268)" display="none"><g ></g><g ></g><g ></g><g ></g></g><image  id="v-7465"></image></g></g><!--z-index:27--><g   id="j_735"  transform="translate(2569,843)" style=""><g  id="v-7469" style="opacity: 1;"><rect  id="v-7470" rx="20" ry="20" stroke-width="2" pointer-events="visiblePainted" fill="#ffebee" stroke="#b71c1c" stroke-dasharray="" width="450" height="300"></rect><text  id="v-7471" font-size="33.599999999999994px" xml:space="preserve" y="101.30000000000001" font-weight="bold" text-anchor="middle" pointer-events="visible" font-family="Tahoma, Verdana, Helvetica, Arial" fill="#b71c1c" dominant-baseline="hanging" transform="matrix(1,0,0,1,225,0)"><tspan dy="0" >Log Consumer</tspan></text><text  id="v-7472" font-size="16.799999999999997px" xml:space="preserve" y="142.9" text-anchor="middle" font-family="Tahoma, Verdana, Helvetica, Arial" fill="#b71c1c" dominant-baseline="hanging" transform="matrix(1,0,0,1,225,0)" style="display: block;"><tspan dy="0" >[Software System]</tspan></text><text  id="v-7473" font-size="24px" xml:space="preserve" y="174.7" text-anchor="middle" font-family="Tahoma, Verdana, Helvetica, Arial" fill="#b71c1c" dominant-baseline="hanging" transform="matrix(1,0,0,1,225,0)" style="display: block;"><tspan dy="0" >Splunk / CloudWatch / Console</tspan></text><g  id="v-7474" color="#b71c1c" transform="matrix(1,0,0,1,222.5,268)" display="none"><g ></g><g ></g><g ></g><g ></g></g><image  id="v-7475"></image></g></g><!--z-index:28--><g   id="j_737"  transform="translate(940,1203)" style="; opacity: 1;"><g id="v-7489"><rect  id="v-7490" width="2129" height="947" rx="20" ry="20" stroke-width="2" pointer-events="none" stroke="#0f5eaa" fill="#ffffff" opacity="0.6" stroke-dasharray=""></rect><text  id="v-7491" font-size="33.599999999999994px" xml:space="preserve" y="908" font-weight="bold" text-anchor="start" pointer-events="visible" font-family="Tahoma, Verdana, Helvetica, Arial" fill="#1168bd" transform="matrix(1,0,0,1,15,0)"><tspan dy="0" >Data Curation Tool</tspan></text><text  id="v-7492" font-size="16.799999999999997px" xml:space="preserve" y="932" font-weight="normal" text-anchor="start" pointer-events="visible" font-family="Tahoma, Verdana, Helvetica, Arial" fill="#1168bd" transform="matrix(1,0,0,1,15,0)"><tspan dy="0" >[Software System]</tspan></text><image  id="v-7493" pointer-events="visible"></image></g></g><!--z-index:29--><g   id="j_736"  transform="translate(2569,1282)" style=""><g  id="v-7482" style="opacity: 1;"><polygon  id="v-7483" stroke-width="2" pointer-events="visiblePainted" fill="#e8f5e9" stroke="#d1ddd2" stroke-dasharray="" points="112.5,0 337.5,0 450,194.5 337.5,389 112.5,389 0,194.5"></polygon><text  id="v-7484" font-size="33.599999999999994px" xml:space="preserve" y="145.8" font-weight="bold" text-anchor="middle" pointer-events="visible" font-family="Tahoma, Verdana, Helvetica, Arial" fill="#1b5e20" dominant-baseline="hanging" transform="matrix(1,0,0,1,225,0)"><tspan dy="0" >Thesaurus Worker</tspan></text><text  id="v-7485" font-size="16.799999999999997px" xml:space="preserve" y="187.4" text-anchor="middle" font-family="Tahoma, Verdana, Helvetica, Arial" fill="#1b5e20" dominant-baseline="hanging" transform="matrix(1,0,0,1,225,0)" style="display: block;"><tspan dy="0" >[Container: Worker Process]</tspan></text><text  id="v-7486" font-size="24px" xml:space="preserve" y="219.2" text-anchor="middle" font-family="Tahoma, Verdana, Helvetica, Arial" fill="#1b5e20" dominant-baseline="hanging" transform="matrix(1,0,0,1,225,0)" style="display: block;"><tspan dy="0" >Background Worker for indexing</tspan></text><g  id="v-7487" font-weight="normal" text-anchor="middle" color="#1b5e20" transform="matrix(1,0,0,1,222.5,357)" display="none"><g ></g><g ></g><g ></g><g ></g></g><image  id="v-7488"></image></g></g><!--z-index:30--><g   id="j_738"  transform="translate(2569,1721)" style=""><g  id="v-7497" style="opacity: 1;"><path  d="M 0,30 a 225,30 0,0,0 450 0 a 225,30 0,0,0 -450 0 l 0,240 a 225,30 0,0,0 450 0 l 0,-240" id="v-7498" stroke-width="2" pointer-events="visiblePainted" fill="#eceff1" stroke="#37474f" stroke-dasharray=""></path><rect  id="v-7499" stroke-width="0" pointer-events="visiblePainted" fill="none" stroke="none" width="450" height="270" x="0" y="30"></rect><text  id="v-7500" font-size="33.599999999999994px" xml:space="preserve" y="116.30000000000001" font-weight="bold" text-anchor="middle" pointer-events="visible" font-family="Tahoma, Verdana, Helvetica, Arial" fill="#000000" dominant-baseline="hanging" transform="matrix(1,0,0,1,225,0)"><tspan dy="0" >System Database</tspan></text><text  id="v-7501" font-size="16.799999999999997px" xml:space="preserve" y="157.9" text-anchor="middle" font-family="Tahoma, Verdana, Helvetica, Arial" fill="#000000" dominant-baseline="hanging" transform="matrix(1,0,0,1,225,0)" style="display: block;"><tspan dy="0" >[Container: SQL database]</tspan></text><text  id="v-7502" font-size="24px" xml:space="preserve" y="189.7" text-anchor="middle" font-family="Tahoma, Verdana, Helvetica, Arial" fill="#000000" dominant-baseline="hanging" transform="matrix(1,0,0,1,225,0)" style="display: block;"><tspan dy="0" >Holds admin credentials &amp; config</tspan></text><g  id="v-7503" font-weight="normal" text-anchor="middle" color="#000000" transform="matrix(1,0,0,1,222.5,268)" display="none"><g ></g><g ></g><g ></g><g ></g></g><image  id="v-7504"></image></g></g><!--z-index:31--><g   id="j_739"  transform="translate(990,1255)" style=""><g  id="v-7505" style="opacity: 1;"><rect  id="v-7506" rx="20" ry="20" stroke-width="2" pointer-events="visiblePainted" fill="#e3f2fd" stroke="#0d47a1" stroke-dasharray="" width="450" height="300"></rect><text  id="v-7507" font-size="33.599999999999994px" xml:space="preserve" y="101.30000000000001" font-weight="bold" text-anchor="middle" pointer-events="visible" font-family="Tahoma, Verdana, Helvetica, Arial" fill="#0d47a1" dominant-baseline="hanging" transform="matrix(1,0,0,1,225,0)"><tspan dy="0" >Web Application</tspan></text><text  id="v-7508" font-size="16.799999999999997px" xml:space="preserve" y="142.9" text-anchor="middle" font-family="Tahoma, Verdana, Helvetica, Arial" fill="#0d47a1" dominant-baseline="hanging" transform="matrix(1,0,0,1,225,0)" style="display: block;"><tspan dy="0" >[Container: TypeScript/React]</tspan></text><text  id="v-7509" font-size="24px" xml:space="preserve" y="174.7" text-anchor="middle" font-family="Tahoma, Verdana, Helvetica, Arial" fill="#0d47a1" dominant-baseline="hanging" transform="matrix(1,0,0,1,225,0)" style="display: block;"><tspan dy="0" >React Frontend (SPA)</tspan></text><g  id="v-7510" color="#0d47a1" transform="matrix(1,0,0,1,210,268)" display="none"><g  transform="translate(5 0)"><svg xmlns="http://www.w3.org/2000/svg" width="20" height="20" fill="currentColor" viewBox="0 0 16 16"><path fill-rule="evenodd" d="M6.5 12a5.5 5.5 0 1 0 0-11 5.5 5.5 0 0 0 0 11zM13 6.5a6.5 6.5 0 1 1-13 0 6.5 6.5 0 0 1 13 0z"></path><path d="M10.344 11.742c.03.04.062.078.098.115l3.85 3.85a1 1 0 0 0 1.415-1.414l-3.85-3.85a1.007 1.007 0 0 0-.115-.1 6.538 6.538 0 0 1-1.398 1.4z"></path><path fill-rule="evenodd" d="M6.5 3a.5.5 0 0 1 .5.5V6h2.5a.5.5 0 0 1 0 1H7v2.5a.5.5 0 0 1-1 0V7H3.5a.5.5 0 0 1 0-1H6V3.5a.5.5 0 0 1 .5-.5z"></path></svg></g><g ></g><g ></g><g ></g></g><image  id="v-7511"></image></g></g><!--z-index:32--><g   id="j_740"  transform="translate(1779,1253)" style=""><g  id="v-7512" style="opacity: 1;"><rect  id="v-7513" rx="20" ry="20" stroke-width="2" pointer-events="visiblePainted" fill="#f3e5f5" stroke="#4a148c" stroke-dasharray="" width="450" height="300"></rect><text  id="v-7514" font-size="33.599999999999994px" xml:space="preserve" y="101.30000000000001" font-weight="bold" text-anchor="middle" pointer-events="visible" font-family="Tahoma, Verdana, Helvetica, Arial" fill="#4a148c" dominant-baseline="hanging" transform="matrix(1,0,0,1,225,0)"><tspan dy="0" >Backend API</tspan></text><text  id="v-7515" font-size="16.799999999999997px" xml:space="preserve" y="142.9" text-anchor="middle" font-family="Tahoma, Verdana, Helvetica, Arial" fill="#4a148c" dominant-baseline="hanging" transform="matrix(1,0,0,1,225,0)" style="display: block;"><tspan dy="0" >[Container: Server API]</tspan></text><text  id="v-7516" font-size="24px" xml:space="preserve" y="174.7" text-anchor="middle" font-family="Tahoma, Verdana, Helvetica, Arial" fill="#4a148c" dominant-baseline="hanging" transform="matrix(1,0,0,1,225,0)" style="display: block;"><tspan dy="0" >Node/Go/Java Server</tspan></text><g  id="v-7517" color="#4a148c" transform="matrix(1,0,0,1,210,268)" display="none"><g  transform="translate(5 0)"><svg xmlns="http://www.w3.org/2000/svg" width="20" height="20" fill="currentColor" viewBox="0 0 16 16"><path fill-rule="evenodd" d="M6.5 12a5.5 5.5 0 1 0 0-11 5.5 5.5 0 0 0 0 11zM13 6.5a6.5 6.5 0 1 1-13 0 6.5 6.5 0 0 1 13 0z"></path><path d="M10.344 11.742c.03.04.062.078.098.115l3.85 3.85a1 1 0 0 0 1.415-1.414l-3.85-3.85a1.007 1.007 0 0 0-.115-.1 6.538 6.538 0 0 1-1.398 1.4z"></path><path fill-rule="evenodd" d="M6.5 3a.5.5 0 0 1 .5.5V6h2.5a.5.5 0 0 1 0 1H7v2.5a.5.5 0 0 1-1 0V7H3.5a.5.5 0 0 1 0-1H6V3.5a.5.5 0 0 1 .5-.5z"></path></svg></g><g ></g><g ></g><g ></g></g><image  id="v-7518"></image></g></g><!--z-index:33--><g   id="j_741"  style="opacity: 1;"><path fill="none" cursor="pointer" stroke="transparent" stroke-linecap="round" joint-selector="wrapper" id="v-7530" stroke-width="10" stroke-linejoin="round" d="M 2130.47 1553 L 2393 1864 C 2397 1868.9999999999998 2402.333333333333 1871.333333333333 2409 1871 L 2569 1871.28"></path><path fill="none" pointer-events="none" joint-selector="line" id="v-7529" stroke="#444444" stroke-width="2" stroke-linejoin="round" stroke-dasharray="8 8" d="M 2130.47 1553 L 2393 1864 C 2397 1868.9999999999998 2402.333333333333 1871.333333333333 2409 1871 L 2569 1871.28" marker-end="url(#v-21252848929)"></path><g id="v-7522" ><g id="v-7523"  label-idx="0" cursor="move" transform="matrix(1,0,0,1,2319.20751953125,1776.58349609375)" style="cursor: default;"><rect joint-selector="rect" id="v-7526" fill="#ffffff" rx="3" ry="3" x="-77.4375" y="-16.8125" width="154.875" height="28.984375" pointer-events="none"  style="display: block;"></rect><text joint-selector="text" id="v-7525" font-size="24px" xml:space="preserve" fill="#444444" text-anchor="middle" pointer-events="none" font-family="Tahoma, Verdana, Helvetica, Arial" font-weight="normal"  style="display: block;"><tspan dy="0.3em" >Persists Config</tspan></text></g><g id="v-7524"  label-idx="1" cursor="move" transform="matrix(1,0,0,1,2309.20751953125,1788.58349609375)" style="cursor: default;"><rect joint-selector="rect" id="v-7528" fill="#ffffff" rx="3" ry="3" x="0" y="0" width="0" height="0"  display="none"></rect><text joint-selector="text" id="v-7527" fill="#000000" font-size="14" text-anchor="middle" text-vertical-anchor="middle" pointer-events="none"></text></g></g></g><!--z-index:34--><g   id="j_742"  style="opacity: 1;"><path fill="none" cursor="pointer" stroke="transparent" stroke-linecap="round" joint-selector="wrapper" id="v-7539" stroke-width="10" stroke-linejoin="round" d="M 2229 1360.85 L 2389 1331 C 2395.6666666666665 1329.6666666666665 2400.6666666666665 1326 2404 1320 L 2707.63 793"></path><path fill="none" pointer-events="none" joint-selector="line" id="v-7538" stroke="#444444" stroke-width="2" stroke-linejoin="round" stroke-dasharray="8 8" d="M 2229 1360.85 L 2389 1331 C 2395.6666666666665 1329.6666666666665 2400.6666666666665 1326 2404 1320 L 2707.63 793" marker-end="url(#v-21252848929)"></path><g id="v-7531" ><g id="v-7532"  label-idx="0" cursor="move" transform="matrix(1,0,0,1,2510.385498046875,1135.3504638671875)" style="cursor: default;"><rect joint-selector="rect" id="v-7535" fill="#ffffff" rx="3" ry="3" x="-22.859375" y="-16.8125" width="45.71875" height="28.984375" pointer-events="none"  style="display: block;"></rect><text joint-selector="text" id="v-7534" font-size="24px" xml:space="preserve" fill="#444444" text-anchor="middle" pointer-events="none" font-family="Tahoma, Verdana, Helvetica, Arial" font-weight="normal"  style="display: block;"><tspan dy="0.3em" >R/W</tspan></text></g><g id="v-7533"  label-idx="1" cursor="move" transform="matrix(1,0,0,1,2500.385498046875,1147.3504638671875)" style="cursor: default;"><rect joint-selector="rect" id="v-7537" fill="#ffffff" rx="3" ry="3" x="0" y="0" width="0" height="0"  display="none"></rect><text joint-selector="text" id="v-7536" fill="#000000" font-size="14" text-anchor="middle" text-vertical-anchor="middle" pointer-events="none"></text></g></g></g><!--z-index:35--><g   id="j_743"  style="opacity: 1;"><path fill="none" cursor="pointer" stroke="transparent" stroke-linecap="round" joint-selector="wrapper" id="v-7548" stroke-width="10" stroke-linejoin="round" d="M 2229 1318.7 L 2390 1259 C 2396 1256.3333333333333 2400.333333333333 1252 2403 1246 L 2732.41 443"></path><path fill="none" pointer-events="none" joint-selector="line" id="v-7547" stroke="#444444" stroke-width="2" stroke-linejoin="round" stroke-dasharray="8 8" d="M 2229 1318.7 L 2390 1259 C 2396 1256.3333333333333 2400.333333333333 1252 2403 1246 L 2732.41 443" marker-end="url(#v-21252848929)"></path><g id="v-7540" ><g id="v-7541"  label-idx="0" cursor="move" transform="matrix(1,0,0,1,2531.54736328125,932.641357421875)" style="cursor: default;"><rect joint-selector="rect" id="v-7544" fill="#ffffff" rx="3" ry="3" x="-35.421875" y="-16.8125" width="70.84375" height="28.984375" pointer-events="none"  style="display: block;"></rect><text joint-selector="text" id="v-7543" font-size="24px" xml:space="preserve" fill="#444444" text-anchor="middle" pointer-events="none" font-family="Tahoma, Verdana, Helvetica, Arial" font-weight="normal"  style="display: block;"><tspan dy="0.3em" >HTTPS</tspan></text></g><g id="v-7542"  label-idx="1" cursor="move" transform="matrix(1,0,0,1,2521.54736328125,944.641357421875)" style="cursor: default;"><rect joint-selector="rect" id="v-7546" fill="#ffffff" rx="3" ry="3" x="0" y="0" width="0" height="0"  display="none"></rect><text joint-selector="text" id="v-7545" fill="#000000" font-size="14" text-anchor="middle" text-vertical-anchor="middle" pointer-events="none"></text></g></g></g><!--z-index:36--><g   id="j_744"  style="opacity: 1;"><path fill="none" cursor="pointer" stroke="transparent" stroke-linecap="round" joint-selector="wrapper" id="v-7557" stroke-width="10" stroke-linejoin="round" d="M 2229 1445.15 L 2389 1475 C 2395.6666666666665 1476.3333333333333 2402.333333333333 1477 2409 1477 L 2569 1476.78"></path><path fill="none" pointer-events="none" joint-selector="line" id="v-7556" stroke="#444444" stroke-width="2" stroke-linejoin="round" stroke-dasharray="8 8" d="M 2229 1445.15 L 2389 1475 C 2395.6666666666665 1476.3333333333333 2402.333333333333 1477 2409 1477 L 2569 1476.78" marker-end="url(#v-21252848929)"></path><g id="v-7549" ><g id="v-7550"  label-idx="0" cursor="move" transform="matrix(1,0,0,1,2397.59375,1476.3494873046875)" style="cursor: default;"><rect joint-selector="rect" id="v-7553" fill="#ffffff" rx="3" ry="3" x="-21.234375" y="-16.8125" width="42.46875" height="28.984375" pointer-events="none"  style="display: block;"></rect><text joint-selector="text" id="v-7552" font-size="24px" xml:space="preserve" fill="#444444" text-anchor="middle" pointer-events="none" font-family="Tahoma, Verdana, Helvetica, Arial" font-weight="normal"  style="display: block;"><tspan dy="0.3em" >Msg</tspan></text></g><g id="v-7551"  label-idx="1" cursor="move" transform="matrix(1,0,0,1,2387.59375,1488.3494873046875)" style="cursor: default;"><rect joint-selector="rect" id="v-7555" fill="#ffffff" rx="3" ry="3" x="0" y="0" width="0" height="0"  display="none"></rect><text joint-selector="text" id="v-7554" fill="#000000" font-size="14" text-anchor="middle" text-vertical-anchor="middle" pointer-events="none"></text></g></g></g><!--z-index:37--><g   id="j_745"  style="opacity: 1;"><path fill="none" cursor="pointer" stroke="transparent" stroke-linecap="round" joint-selector="wrapper" id="v-7566" stroke-width="10" stroke-linejoin="round" d="M 2229 1403 L 2389 1403 C 2395.6666666666665 1403 2401.333333333333 1400.6666666666665 2406 1396 L 2649.49 1143"></path><path fill="none" pointer-events="none" joint-selector="line" id="v-7565" stroke="#444444" stroke-width="2" stroke-linejoin="round" stroke-dasharray="8 8" d="M 2229 1403 L 2389 1403 C 2395.6666666666665 1403 2401.333333333333 1400.6666666666665 2406 1396 L 2649.49 1143" marker-end="url(#v-21252848929)"></path><g id="v-7558" ><g id="v-7559"  label-idx="0" cursor="move" transform="matrix(1,0,0,1,2465.71875,1333.9488525390625)" style="cursor: default;"><rect joint-selector="rect" id="v-7562" fill="#ffffff" rx="3" ry="3" x="-24.484375" y="-16.8125" width="48.96875" height="28.984375" pointer-events="none"  style="display: block;"></rect><text joint-selector="text" id="v-7561" font-size="24px" xml:space="preserve" fill="#444444" text-anchor="middle" pointer-events="none" font-family="Tahoma, Verdana, Helvetica, Arial" font-weight="normal"  style="display: block;"><tspan dy="0.3em" >Logs</tspan></text></g><g id="v-7560"  label-idx="1" cursor="move" transform="matrix(1,0,0,1,2455.71875,1345.9488525390625)" style="cursor: default;"><rect joint-selector="rect" id="v-7564" fill="#ffffff" rx="3" ry="3" x="0" y="0" width="0" height="0"  display="none"></rect><text joint-selector="text" id="v-7563" fill="#000000" font-size="14" text-anchor="middle" text-vertical-anchor="middle" pointer-events="none"></text></g></g></g><!--z-index:38--><g   id="j_746"  style="opacity: 1;"><path fill="none" cursor="pointer" stroke="transparent" stroke-linecap="round" joint-selector="wrapper" id="v-7578" stroke-width="10" stroke-linejoin="round" d="M 595 1348.68 L 929 1397 C 935.6666666666666 1397.6666666666665 942.3333333333333 1398 949 1398 L 990 1399.29"></path><path fill="none" pointer-events="none" joint-selector="line" id="v-7577" stroke="#444444" stroke-width="2" stroke-linejoin="round" stroke-dasharray="8 8" d="M 595 1348.68 L 929 1397 C 935.6666666666666 1397.6666666666665 942.3333333333333 1398 949 1398 L 990 1399.29" marker-end="url(#v-21252848929)"></path><g id="v-7570" ><g id="v-7571"  label-idx="0" cursor="move" transform="matrix(1,0,0,1,792.2119750976562,1377.2108154296875)" style="cursor: default;"><rect joint-selector="rect" id="v-7574" fill="#ffffff" rx="3" ry="3" x="-89.765625" y="-31.21875" width="179.53125" height="57.78125" pointer-events="none"  style="display: block;"></rect><text joint-selector="text" id="v-7573" font-size="24px" xml:space="preserve" fill="#444444" text-anchor="middle" pointer-events="none" font-family="Tahoma, Verdana, Helvetica, Arial" font-weight="normal"  style="display: block;"><tspan dy="-0.3em" >Uses to annotate</tspan><tspan dy="1.2em" x="0" >data</tspan></text></g><g id="v-7572"  label-idx="1" cursor="move" transform="matrix(1,0,0,1,782.2119750976562,1403.61083984375)" style="cursor: default;"><rect joint-selector="rect" id="v-7576" fill="#ffffff" rx="3" ry="3" x="0" y="0" width="0" height="0"  display="none"></rect><text joint-selector="text" id="v-7575" fill="#000000" font-size="14" text-anchor="middle" text-vertical-anchor="middle" pointer-events="none"></text></g></g></g><!--z-index:39--><g   id="j_747"  style="opacity: 1;"><path fill="none" cursor="pointer" stroke="transparent" stroke-linecap="round" joint-selector="wrapper" id="v-7590" stroke-width="10" stroke-linejoin="round" d="M 599 1946.19 L 929 1946 C 935.6666666666666 1946.333333333333 940.6666666666666 1943.6666666666665 944 1938 L 1138.55 1555"></path><path fill="none" pointer-events="none" joint-selector="line" id="v-7589" stroke="#444444" stroke-width="2" stroke-linejoin="round" stroke-dasharray="8 8" d="M 599 1946.19 L 929 1946 C 935.6666666666666 1946.333333333333 940.6666666666666 1943.6666666666665 944 1938 L 1138.55 1555" marker-end="url(#v-21252848929)"></path><g id="v-7582" ><g id="v-7583"  label-idx="0" cursor="move" transform="matrix(1,0,0,1,962.4765625,1901.626220703125)" style="cursor: default;"><rect joint-selector="rect" id="v-7586" fill="#ffffff" rx="3" ry="3" x="-92.203125" y="-31.21875" width="184.40625" height="57.78125" pointer-events="none"  style="display: block;"></rect><text joint-selector="text" id="v-7585" font-size="24px" xml:space="preserve" fill="#444444" text-anchor="middle" pointer-events="none" font-family="Tahoma, Verdana, Helvetica, Arial" font-weight="normal"  style="display: block;"><tspan dy="-0.3em" >Uses to configure</tspan><tspan dy="1.2em" x="0" >system</tspan></text></g><g id="v-7584"  label-idx="1" cursor="move" transform="matrix(1,0,0,1,952.4765625,1928.0262451171875)" style="cursor: default;"><rect joint-selector="rect" id="v-7588" fill="#ffffff" rx="3" ry="3" x="0" y="0" width="0" height="0"  display="none"></rect><text joint-selector="text" id="v-7587" fill="#000000" font-size="14" text-anchor="middle" text-vertical-anchor="middle" pointer-events="none"></text></g></g></g><!--z-index:40--><g   id="j_748"  style="opacity: 1;"><path fill="none" cursor="pointer" stroke="transparent" stroke-linecap="round" joint-selector="wrapper" id="v-7602" stroke-width="10" stroke-linejoin="round" d="M 1440 1404.43 L 1779 1403.57"></path><path fill="none" pointer-events="none" joint-selector="line" id="v-7601" stroke="#444444" stroke-width="2" stroke-linejoin="round" stroke-dasharray="8 8" d="M 1440 1404.43 L 1779 1403.57" marker-end="url(#v-21252848929)"></path><g id="v-7594" ><g id="v-7595"  label-idx="0" cursor="move" transform="matrix(1,0,0,1,1609.5,1404)" style="cursor: default;"><rect joint-selector="rect" id="v-7598" fill="#ffffff" rx="3" ry="3" x="-68.171875" y="-31.21875" width="136.34375" height="57.78125" pointer-events="none"  style="display: block;"></rect><text joint-selector="text" id="v-7597" font-size="24px" xml:space="preserve" fill="#444444" text-anchor="middle" pointer-events="none" font-family="Tahoma, Verdana, Helvetica, Arial" font-weight="normal"  style="display: block;"><tspan dy="-0.3em" >2. HTTP GET</tspan><tspan dy="1.2em" x="0" >/config</tspan></text></g><g id="v-7596"  label-idx="1" cursor="move" transform="matrix(1,0,0,1,1599.5,1430.4000244140625)" style="cursor: default;"><rect joint-selector="rect" id="v-7600" fill="#ffffff" rx="3" ry="3" x="0" y="0" width="0" height="0"  display="none"></rect><text joint-selector="text" id="v-7599" fill="#000000" font-size="14" text-anchor="middle" text-vertical-anchor="middle" pointer-events="none"></text></g></g></g><!--z-index:41--><!--z-index:42--><!--z-index:43--><!--z-index:44--><!--z-index:45--><!--z-index:46--><!--z-index:47--><!--z-index:48--><!--z-index:49--><!--z-index:50--><!--z-index:51--><!--z-index:52--><!--z-index:53--><!--z-index:54--><!--z-index:55--><!--z-index:56--><!--z-index:57--><!--z-index:58--><!--z-index:59--><!--z-index:60--><!--z-index:61--><!--z-index:62--><!--z-index:63--><!--z-index:64--><!--z-index:65--><!--z-index:66--><!--z-index:67--><!--z-index:68--><!--z-index:69--><!--z-index:70--><!--z-index:71--><!--z-index:72--><!--z-index:73--><!--z-index:74--><!--z-index:75--><!--z-index:76--><!--z-index:77--><!--z-index:78--><!--z-index:79--><!--z-index:80--><!--z-index:81--><!--z-index:82--><!--z-index:83--><!--z-index:84--><!--z-index:85--><!--z-index:86--><!--z-index:87--><!--z-index:88--><!--z-index:89--><!--z-index:90--><!--z-index:91--><!--z-index:92--><!--z-index:93--><!--z-index:94--><!--z-index:95--><!--z-index:96--><!--z-index:97--><!--z-index:98--><!--z-index:99--><!--z-index:100--><!--z-index:101--><!--z-index:102--><!--z-index:103--><!--z-index:104--><!--z-index:105--><!--z-index:106--><!--z-index:107--><!--z-index:108--><!--z-index:109--><!--z-index:110--><!--z-index:111--><!--z-index:112--><!--z-index:113--><!--z-index:114--><!--z-index:115--><!--z-index:116--><!--z-index:117--><!--z-index:118--><!--z-index:119--><!--z-index:120--><!--z-index:121--><!--z-index:122--><!--z-index:123--><!--z-index:124--><!--z-index:125--><!--z-index:126--><!--z-index:127--><!--z-index:128--><!--z-index:129--><!--z-index:130--><!--z-index:131--></g><g  style="-webkit-user-select: none;"></g><g ></g><g  display="none"><g ><g  data-tool-name="vertices" ><path fill="none" stroke="transparent" stroke-width="10" cursor="cell" joint-selector="connection" d="M 2130.47 1553 L 2393 1864 C 2397 1868.9999999999998 2402.333333333333 1871.333333333333 2409 1871 L 2569 1871.28" ></path><circle r="6" fill="#33334F" stroke="#FFFFFF" stroke-width="2" cursor="move"  transform="matrix(2,0,0,2,2399,1871.5)" ></circle></g></g><g ><g  data-tool-name="vertices" ><path fill="none" stroke="transparent" stroke-width="10" cursor="cell" joint-selector="connection" d="M 2229 1360.85 L 2389 1331 C 2395.6666666666665 1329.6666666666665 2400.6666666666665 1326 2404 1320 L 2707.63 793" ></path><circle r="6" fill="#33334F" stroke="#FFFFFF" stroke-width="2" cursor="move"  transform="matrix(2,0,0,2,2399,1329)" ></circle></g></g><g ><g  data-tool-name="vertices" ><path fill="none" stroke="transparent" stroke-width="10" cursor="cell" joint-selector="connection" d="M 2229 1318.7 L 2390 1259 C 2396 1256.3333333333333 2400.333333333333 1252 2403 1246 L 2732.41 443" ></path><circle r="6" fill="#33334F" stroke="#FFFFFF" stroke-width="2" cursor="move"  transform="matrix(2,0,0,2,2399,1255)" ></circle></g></g><g ><g  data-tool-name="vertices" ><path fill="none" stroke="transparent" stroke-width="10" cursor="cell" joint-selector="connection" d="M 2229 1445.15 L 2389 1475 C 2395.6666666666665 1476.3333333333333 2402.333333333333 1477 2409 1477 L 2569 1476.78" ></path><circle r="6" fill="#33334F" stroke="#FFFFFF" stroke-width="2" cursor="move"  transform="matrix(2,0,0,2,2399,1477)" ></circle></g></g><g ><g  data-tool-name="vertices" ><path fill="none" stroke="transparent" stroke-width="10" cursor="cell" joint-selector="connection" d="M 2229 1403 L 2389 1403 C 2395.6666666666665 1403 2401.333333333333 1400.6666666666665 2406 1396 L 2649.49 1143" ></path><circle r="6" fill="#33334F" stroke="#FFFFFF" stroke-width="2" cursor="move"  transform="matrix(2,0,0,2,2399,1403)" ></circle></g></g><g ><g  data-tool-name="vertices" ><path fill="none" stroke="transparent" stroke-width="10" cursor="cell" joint-selector="connection" d="M 595 1348.68 L 929 1397 C 935.6666666666666 1397.6666666666665 942.3333333333333 1398 949 1398 L 990 1399.29" ></path><circle r="6" fill="#33334F" stroke="#FFFFFF" stroke-width="2" cursor="move"  transform="matrix(2,0,0,2,939,1398)" ></circle></g></g><g ><g  data-tool-name="vertices" ><path fill="none" stroke="transparent" stroke-width="10" cursor="cell" joint-selector="connection" d="M 599 1946.19 L 929 1946 C 935.6666666666666 1946.333333333333 940.6666666666666 1943.6666666666665 944 1938 L 1138.55 1555" ></path><circle r="6" fill="#33334F" stroke="#FFFFFF" stroke-width="2" cursor="move"  transform="matrix(2,0,0,2,939,1946.5)" ></circle></g></g><g ><g  data-tool-name="vertices" ><path fill="none" stroke="transparent" stroke-width="10" cursor="cell" joint-selector="connection" d="M 1440 1404.43 L 1779 1403.57" ></path></g></g><!--z-index:1--></g></g></svg>