<svg xmlns="http://www.w3.org/2000/svg" xmlns:xlink="http://www.w3.org/1999/xlink" version="1.1" viewBox="0 0 2380 1450" style="background: #ffffff"><style id="v-3" type="text/css">
        .joint-element .scalable * {
            vector-effect: non-scaling-stroke;
        }
    </style><defs joint-selector="defs"><marker id="v-2-527367903" orient="auto" overflow="visible" markerUnits="userSpaceOnUse"><path id="v-89" stroke="#cccccc" fill="#cccccc" transform="rotate(180)" d="M 20 -10 0 0 20 10 Z"></path></marker><marker id="v-21252848929" orient="auto" overflow="visible" markerUnits="userSpaceOnUse"><path id="v-6906" stroke="#444444" fill="#444444" transform="rotate(180)" d="M 20 -10 0 0 20 10 Z"></path></marker></defs><g joint-selector="layers"  transform="matrix(1,0,0,1,0,0)"><g  style="pointer-events: none;"></g><g ></g><g  style="-webkit-user-select: none;"><!--z-index:0--><!--z-index:1--><!--z-index:2--><!--z-index:3--><!--z-index:4--><!--z-index:5--><!--z-index:6--><!--z-index:7--><!--z-index:8--><!--z-index:9--><!--z-index:10--><!--z-index:11--><!--z-index:12--><!--z-index:13--><g   id="j_716"  transform="translate(20,1406)"><g id="v-7289"><text  id="v-7290" font-size="24px" xml:space="preserve" y="0.8em" font-weight="normal" text-anchor="start" fill="#444444" pointer-events="none" display="block" font-family="Tahoma, Verdana, Helvetica, Arial"><tspan dy="0" >Monday, February 9, 2026 at 7:52 PM Central European Standard Time</tspan></text></g></g><!--z-index:14--><g   id="j_715"  transform="translate(20,1372)"><g id="v-7287"><text  id="v-7288" font-size="24px" xml:space="preserve" y="0.8em" font-weight="normal" text-anchor="start" fill="#444444" pointer-events="none" display="block" font-family="Tahoma, Verdana, Helvetica, Arial"><tspan dy="0" >Actors and External Systems interacting with the Tool.</tspan></text></g></g><!--z-index:15--><g   id="j_714"  transform="translate(20,1326)"><g id="v-7285"><text  id="v-7286" font-size="36px" xml:space="preserve" y="0.8em" font-weight="normal" text-anchor="start" fill="#444444" pointer-events="none" display="block" font-family="Tahoma, Verdana, Helvetica, Arial"><tspan dy="0" >Memorise - System Landscape</tspan></text></g></g><!--z-index:16--><g   id="j_717"  transform="translate(115,100)" style=""><g  id="v-7294" style="opacity: 1;"><rect  x="0" y="160" width="400" height="240" rx="70" id="v-7296" stroke-width="2" pointer-events="visiblePainted" fill="#0d47a1" stroke="#0c4091" stroke-dasharray=""></rect><circle  cx="200" cy="88.88888888888889" r="88.88888888888889" id="v-7295" stroke-width="2" pointer-events="visiblePainted" fill="#0d47a1" stroke="#0c4091" stroke-dasharray=""></circle><line  x1="80" y1="266.6666666666667" x2="80" y2="400" id="v-7302" stroke="#0c4091" stroke-width="1" stroke-dasharray=""></line><line  x1="320" y1="266.6666666666667" x2="320" y2="400" id="v-7303" stroke="#0c4091" stroke-width="1" stroke-dasharray=""></line><text  id="v-7297" font-size="33.599999999999994px" xml:space="preserve" y="202.5" font-weight="bold" text-anchor="middle" pointer-events="visible" font-family="Tahoma, Verdana, Helvetica, Arial" fill="#ffffff" dominant-baseline="hanging" transform="matrix(1,0,0,1,200,0)"><tspan dy="0" >Annotator</tspan></text><text  id="v-7298" font-size="16.799999999999997px" xml:space="preserve" y="244.1" text-anchor="middle" font-family="Tahoma, Verdana, Helvetica, Arial" fill="#ffffff" dominant-baseline="hanging" transform="matrix(1,0,0,1,200,0)" style="display: block;"><tspan dy="0" >[Person]</tspan></text><text  id="v-7299" font-size="24px" xml:space="preserve" y="275.9" text-anchor="middle" font-family="Tahoma, Verdana, Helvetica, Arial" fill="#ffffff" dominant-baseline="hanging" transform="matrix(1,0,0,1,200,0)" style="display: block;"><tspan dy="0" >A user who annotates text,</tspan><tspan dy="1.2em" x="0" >manages workspaces, and</tspan><tspan dy="1.2em" x="0" >exports data.</tspan></text><g  id="v-7300" font-weight="normal" text-anchor="middle" color="#ffffff" transform="matrix(1,0,0,1,197.5,368)" display="none"><g ></g><g ></g><g ></g><g ></g></g><image  id="v-7301"></image></g></g><!--z-index:17--><g   id="j_718"  transform="translate(180,800)" style=""><g  id="v-7307" style="opacity: 1;"><rect  x="0" y="160" width="400" height="240" rx="70" id="v-7309" stroke-width="2" pointer-events="visiblePainted" fill="#0d47a1" stroke="#0c4091" stroke-dasharray=""></rect><circle  cx="200" cy="88.88888888888889" r="88.88888888888889" id="v-7308" stroke-width="2" pointer-events="visiblePainted" fill="#0d47a1" stroke="#0c4091" stroke-dasharray=""></circle><line  x1="80" y1="266.6666666666667" x2="80" y2="400" id="v-7315" stroke="#0c4091" stroke-width="1" stroke-dasharray=""></line><line  x1="320" y1="266.6666666666667" x2="320" y2="400" id="v-7316" stroke="#0c4091" stroke-width="1" stroke-dasharray=""></line><text  id="v-7310" font-size="33.599999999999994px" xml:space="preserve" y="202.5" font-weight="bold" text-anchor="middle" pointer-events="visible" font-family="Tahoma, Verdana, Helvetica, Arial" fill="#ffffff" dominant-baseline="hanging" transform="matrix(1,0,0,1,200,0)"><tspan dy="0" >Administrator</tspan></text><text  id="v-7311" font-size="16.799999999999997px" xml:space="preserve" y="244.1" text-anchor="middle" font-family="Tahoma, Verdana, Helvetica, Arial" fill="#ffffff" dominant-baseline="hanging" transform="matrix(1,0,0,1,200,0)" style="display: block;"><tspan dy="0" >[Person]</tspan></text><text  id="v-7312" font-size="24px" xml:space="preserve" y="275.9" text-anchor="middle" font-family="Tahoma, Verdana, Helvetica, Arial" fill="#ffffff" dominant-baseline="hanging" transform="matrix(1,0,0,1,200,0)" style="display: block;"><tspan dy="0" >A user who manages system</tspan><tspan dy="1.2em" x="0" >configuration and infrastructure</tspan><tspan dy="1.2em" x="0" >settings.</tspan></text><g  id="v-7313" font-weight="normal" text-anchor="middle" color="#ffffff" transform="matrix(1,0,0,1,197.5,368)" display="none"><g ></g><g ></g><g ></g><g ></g></g><image  id="v-7314"></image></g></g><!--z-index:18--><g   id="j_719"  transform="translate(1729,492)" style=""><g  id="v-7320" style="opacity: 1;"><rect  id="v-7321" rx="20" ry="20" stroke-width="2" pointer-events="visiblePainted" fill="#ffebee" stroke="#b71c1c" stroke-dasharray="" width="450" height="300"></rect><text  id="v-7322" font-size="33.599999999999994px" xml:space="preserve" y="86.9" font-weight="bold" text-anchor="middle" pointer-events="visible" font-family="Tahoma, Verdana, Helvetica, Arial" fill="#b71c1c" dominant-baseline="hanging" transform="matrix(1,0,0,1,225,0)"><tspan dy="0" >External APIs</tspan></text><text  id="v-7323" font-size="16.799999999999997px" xml:space="preserve" y="128.5" text-anchor="middle" font-family="Tahoma, Verdana, Helvetica, Arial" fill="#b71c1c" dominant-baseline="hanging" transform="matrix(1,0,0,1,225,0)" style="display: block;"><tspan dy="0" >[Software System]</tspan></text><text  id="v-7324" font-size="24px" xml:space="preserve" y="160.3" text-anchor="middle" font-family="Tahoma, Verdana, Helvetica, Arial" fill="#b71c1c" dominant-baseline="hanging" transform="matrix(1,0,0,1,225,0)" style="display: block;"><tspan dy="0" >External ML/Translation APIs (NER,</tspan><tspan dy="1.2em" x="0" >Seg, Classify)</tspan></text><g  id="v-7325" color="#b71c1c" transform="matrix(1,0,0,1,222.5,268)" display="none"><g ></g><g ></g><g ></g><g ></g></g><image  id="v-7326"></image></g></g><!--z-index:19--><g   id="j_720"  transform="translate(1729,142)" style=""><g  id="v-7330" style="opacity: 1;"><rect  id="v-7331" rx="20" ry="20" stroke-width="2" pointer-events="visiblePainted" fill="#ffebee" stroke="#b71c1c" stroke-dasharray="" width="450" height="300"></rect><text  id="v-7332" font-size="33.599999999999994px" xml:space="preserve" y="86.9" font-weight="bold" text-anchor="middle" pointer-events="visible" font-family="Tahoma, Verdana, Helvetica, Arial" fill="#b71c1c" dominant-baseline="hanging" transform="matrix(1,0,0,1,225,0)"><tspan dy="0" >Storage</tspan></text><text  id="v-7333" font-size="16.799999999999997px" xml:space="preserve" y="128.5" text-anchor="middle" font-family="Tahoma, Verdana, Helvetica, Arial" fill="#b71c1c" dominant-baseline="hanging" transform="matrix(1,0,0,1,225,0)" style="display: block;"><tspan dy="0" >[Software System]</tspan></text><text  id="v-7334" font-size="24px" xml:space="preserve" y="160.3" text-anchor="middle" font-family="Tahoma, Verdana, Helvetica, Arial" fill="#b71c1c" dominant-baseline="hanging" transform="matrix(1,0,0,1,225,0)" style="display: block;"><tspan dy="0" >Physical Storage (File System,</tspan><tspan dy="1.2em" x="0" >MSSQL, S3)</tspan></text><g  id="v-7335" color="#b71c1c" transform="matrix(1,0,0,1,222.5,268)" display="none"><g ></g><g ></g><g ></g><g ></g></g><image  id="v-7336"></image></g></g><!--z-index:20--><g   id="j_721"  transform="translate(1729,842)" style=""><g  id="v-7340" style="opacity: 1;"><rect  id="v-7341" rx="20" ry="20" stroke-width="2" pointer-events="visiblePainted" fill="#ffebee" stroke="#b71c1c" stroke-dasharray="" width="450" height="300"></rect><text  id="v-7342" font-size="33.599999999999994px" xml:space="preserve" y="101.30000000000001" font-weight="bold" text-anchor="middle" pointer-events="visible" font-family="Tahoma, Verdana, Helvetica, Arial" fill="#b71c1c" dominant-baseline="hanging" transform="matrix(1,0,0,1,225,0)"><tspan dy="0" >Log Consumer</tspan></text><text  id="v-7343" font-size="16.799999999999997px" xml:space="preserve" y="142.9" text-anchor="middle" font-family="Tahoma, Verdana, Helvetica, Arial" fill="#b71c1c" dominant-baseline="hanging" transform="matrix(1,0,0,1,225,0)" style="display: block;"><tspan dy="0" >[Software System]</tspan></text><text  id="v-7344" font-size="24px" xml:space="preserve" y="174.7" text-anchor="middle" font-family="Tahoma, Verdana, Helvetica, Arial" fill="#b71c1c" dominant-baseline="hanging" transform="matrix(1,0,0,1,225,0)" style="display: block;"><tspan dy="0" >Splunk / CloudWatch / Console</tspan></text><g  id="v-7345" color="#b71c1c" transform="matrix(1,0,0,1,222.5,268)" display="none"><g ></g><g ></g><g ></g><g ></g></g><image  id="v-7346"></image></g></g><!--z-index:21--><g   id="j_722"  transform="translate(940,440)" style=""><g  id="v-7353" style="opacity: 1;"><rect  id="v-7354" rx="20" ry="20" stroke-width="2" pointer-events="visiblePainted" fill="#1168bd" stroke="#0f5eaa" stroke-dasharray="" width="450" height="300"></rect><text  id="v-7355" font-size="33.599999999999994px" xml:space="preserve" y="101.30000000000001" font-weight="bold" text-anchor="middle" pointer-events="visible" font-family="Tahoma, Verdana, Helvetica, Arial" fill="#ffffff" dominant-baseline="hanging" transform="matrix(1,0,0,1,225,0)"><tspan dy="0" >Data Curation Tool</tspan></text><text  id="v-7356" font-size="16.799999999999997px" xml:space="preserve" y="142.9" text-anchor="middle" font-family="Tahoma, Verdana, Helvetica, Arial" fill="#ffffff" dominant-baseline="hanging" transform="matrix(1,0,0,1,225,0)" style="display: block;"><tspan dy="0" >[Software System]</tspan></text><text  id="v-7357" font-size="24px" xml:space="preserve" y="174.7" text-anchor="middle" font-family="Tahoma, Verdana, Helvetica, Arial" fill="#ffffff" dominant-baseline="hanging" transform="matrix(1,0,0,1,225,0)" style="display: block;"><tspan dy="0" >React-based annotation platform</tspan></text><g  id="v-7358" color="#ffffff" transform="matrix(1,0,0,1,210,268)" display="none"><g  transform="translate(5 0)"><svg xmlns="http://www.w3.org/2000/svg" width="20" height="20" fill="currentColor" viewBox="0 0 16 16"><path fill-rule="evenodd" d="M6.5 12a5.5 5.5 0 1 0 0-11 5.5 5.5 0 0 0 0 11zM13 6.5a6.5 6.5 0 1 1-13 0 6.5 6.5 0 0 1 13 0z"></path><path d="M10.344 11.742c.03.04.062.078.098.115l3.85 3.85a1 1 0 0 0 1.415-1.414l-3.85-3.85a1.007 1.007 0 0 0-.115-.1 6.538 6.538 0 0 1-1.398 1.4z"></path><path fill-rule="evenodd" d="M6.5 3a.5.5 0 0 1 .5.5V6h2.5a.5.5 0 0 1 0 1H7v2.5a.5.5 0 0 1-1 0V7H3.5a.5.5 0 0 1 0-1H6V3.5a.5.5 0 0 1 .5-.5z"></path></svg></g><g ></g><g ></g><g ></g></g><image  id="v-7359"></image></g></g><!--z-index:22--><g   id="j_723"  style="opacity: 1;"><path fill="none" cursor="pointer" stroke="transparent" stroke-linecap="round" joint-selector="wrapper" id="v-7368" stroke-width="10" stroke-linejoin="round" d="M 1363.32 440 L 1551 298 C 1556.3333333333333 294 1562.3333333333333 292 1569 292 L 1729 292" style="stroke-width: 10px;"></path><path fill="none" pointer-events="none" joint-selector="line" id="v-7367" stroke="#444444" stroke-width="2" stroke-linejoin="round" stroke-dasharray="8 8" d="M 1363.32 440 L 1551 298 C 1556.3333333333333 294 1562.3333333333333 292 1569 292 L 1729 292" marker-end="url(#v-21252848929)"></path><g id="v-7360" ><g id="v-7361"  label-idx="0" cursor="move" transform="matrix(1,0,0,1,1528.6583251953125,314.9039001464844)" style="cursor: default;"><rect joint-selector="rect" id="v-7364" fill="#ffffff" rx="3" ry="3" x="-22.859375" y="-16.8125" width="45.71875" height="28.984375" pointer-events="none"  style="display: block;"></rect><text joint-selector="text" id="v-7363" font-size="24px" xml:space="preserve" fill="#444444" text-anchor="middle" pointer-events="none" font-family="Tahoma, Verdana, Helvetica, Arial" font-weight="normal"  style="display: block;"><tspan dy="0.3em" >R/W</tspan></text></g><g id="v-7362"  label-idx="1" cursor="move" transform="matrix(1,0,0,1,1518.6583251953125,326.9039001464844)" style="cursor: default;"><rect joint-selector="rect" id="v-7366" fill="#ffffff" rx="3" ry="3" x="0" y="0" width="0" height="0"  display="none"></rect><text joint-selector="text" id="v-7365" fill="#000000" font-size="14" text-anchor="middle" text-vertical-anchor="middle" pointer-events="none"></text></g></g></g><!--z-index:23--><g   id="j_724"  style="opacity: 1;"><path fill="none" cursor="pointer" stroke="transparent" stroke-linecap="round" joint-selector="wrapper" id="v-7377" stroke-width="10" stroke-linejoin="round" d="M 1390 619.7 L 1549 641 C 1555.6666666666665 641.6666666666666 1562.3333333333333 642 1569 642 L 1729 642" style="stroke-width: 10px;"></path><path fill="none" pointer-events="none" joint-selector="line" id="v-7376" stroke="#444444" stroke-width="2" stroke-linejoin="round" stroke-dasharray="8 8" d="M 1390 619.7 L 1549 641 C 1555.6666666666665 641.6666666666666 1562.3333333333333 642 1569 642 L 1729 642" marker-end="url(#v-21252848929)"></path><g id="v-7369" ><g id="v-7370"  label-idx="0" cursor="move" transform="matrix(1,0,0,1,1558.765625,641.7381591796875)" style="cursor: default;"><rect joint-selector="rect" id="v-7373" fill="#ffffff" rx="3" ry="3" x="-35.421875" y="-16.8125" width="70.84375" height="28.984375" pointer-events="none"  style="display: block;"></rect><text joint-selector="text" id="v-7372" font-size="24px" xml:space="preserve" fill="#444444" text-anchor="middle" pointer-events="none" font-family="Tahoma, Verdana, Helvetica, Arial" font-weight="normal"  style="display: block;"><tspan dy="0.3em" >HTTPS</tspan></text></g><g id="v-7371"  label-idx="1" cursor="move" transform="matrix(1,0,0,1,1548.765625,653.7381591796875)" style="cursor: default;"><rect joint-selector="rect" id="v-7375" fill="#ffffff" rx="3" ry="3" x="0" y="0" width="0" height="0"  display="none"></rect><text joint-selector="text" id="v-7374" fill="#000000" font-size="14" text-anchor="middle" text-vertical-anchor="middle" pointer-events="none"></text></g></g></g><!--z-index:24--><g   id="j_725"  style="opacity: 1;"><path fill="none" cursor="pointer" stroke="transparent" stroke-linecap="round" joint-selector="wrapper" id="v-7386" stroke-width="10" stroke-linejoin="round" d="M 1312.01 740 L 1552 985 C 1556.6666666666665 989.6666666666665 1562.3333333333333 991.9999999999999 1569 992 L 1729 992" style="stroke-width: 10px;"></path><path fill="none" pointer-events="none" joint-selector="line" id="v-7385" stroke="#444444" stroke-width="2" stroke-linejoin="round" stroke-dasharray="8 8" d="M 1312.01 740 L 1552 985 C 1556.6666666666665 989.6666666666665 1562.3333333333333 991.9999999999999 1569 992 L 1729 992" marker-end="url(#v-21252848929)"></path><g id="v-7378" ><g id="v-7379"  label-idx="0" cursor="move" transform="matrix(1,0,0,1,1494.5975341796875,926.399169921875)" style="cursor: default;"><rect joint-selector="rect" id="v-7382" fill="#ffffff" rx="3" ry="3" x="-24.484375" y="-16.8125" width="48.96875" height="28.984375" pointer-events="none"  style="display: block;"></rect><text joint-selector="text" id="v-7381" font-size="24px" xml:space="preserve" fill="#444444" text-anchor="middle" pointer-events="none" font-family="Tahoma, Verdana, Helvetica, Arial" font-weight="normal"  style="display: block;"><tspan dy="0.3em" >Logs</tspan></text></g><g id="v-7380"  label-idx="1" cursor="move" transform="matrix(1,0,0,1,1484.5975341796875,938.399169921875)" style="cursor: default;"><rect joint-selector="rect" id="v-7384" fill="#ffffff" rx="3" ry="3" x="0" y="0" width="0" height="0"  display="none"></rect><text joint-selector="text" id="v-7383" fill="#000000" font-size="14" text-anchor="middle" text-vertical-anchor="middle" pointer-events="none"></text></g></g></g><!--z-index:25--><g   id="j_726"  style="opacity: 1;"><path fill="none" cursor="pointer" stroke="transparent" stroke-linecap="round" joint-selector="wrapper" id="v-7398" stroke-width="10" stroke-linejoin="round" d="M 515 406.61 L 760 537 C 766 540.3333333333333 772.3333333333333 542.3333333333333 779 543 L 940 562.73" style="stroke-width: 10px;"></path><path fill="none" pointer-events="none" joint-selector="line" id="v-7397" stroke="#444444" stroke-width="2" stroke-linejoin="round" stroke-dasharray="8 8" d="M 515 406.61 L 760 537 C 766 540.3333333333333 772.3333333333333 542.3333333333333 779 543 L 940 562.73" marker-end="url(#v-21252848929)"></path><g id="v-7390" ><g id="v-7391"  label-idx="0" cursor="move" transform="matrix(1,0,0,1,717.9500122070312,514.6207885742188)" style="cursor: default;"><rect joint-selector="rect" id="v-7394" fill="#ffffff" rx="3" ry="3" x="-89.765625" y="-31.21875" width="179.53125" height="57.78125" pointer-events="none"  style="display: block;"></rect><text joint-selector="text" id="v-7393" font-size="24px" xml:space="preserve" fill="#444444" text-anchor="middle" pointer-events="none" font-family="Tahoma, Verdana, Helvetica, Arial" font-weight="normal"  style="display: block;"><tspan dy="-0.3em" >Uses to annotate</tspan><tspan dy="1.2em" x="0" >data</tspan></text></g><g id="v-7392"  label-idx="1" cursor="move" transform="matrix(1,0,0,1,707.9500122070312,541.0208129882812)" style="cursor: default;"><rect joint-selector="rect" id="v-7396" fill="#ffffff" rx="3" ry="3" x="0" y="0" width="0" height="0"  display="none"></rect><text joint-selector="text" id="v-7395" fill="#000000" font-size="14" text-anchor="middle" text-vertical-anchor="middle" pointer-events="none"></text></g></g></g><!--z-index:26--><g   id="j_727"  style="opacity: 1;"><path fill="none" cursor="pointer" stroke="transparent" stroke-linecap="round" joint-selector="wrapper" id="v-7410" stroke-width="10" stroke-linejoin="round" d="M 580 995.89 L 759 992 C 765.6666666666666 991.9999999999999 771.3333333333333 989.6666666666665 776 985 L 1017.24 740" style="stroke-width: 10px;"></path><path fill="none" pointer-events="none" joint-selector="line" id="v-7409" stroke="#444444" stroke-width="2" stroke-linejoin="round" stroke-dasharray="8 8" d="M 580 995.89 L 759 992 C 765.6666666666666 991.9999999999999 771.3333333333333 989.6666666666665 776 985 L 1017.24 740" marker-end="url(#v-21252848929)"></path><g id="v-7402" ><g id="v-7403"  label-idx="0" cursor="move" transform="matrix(1,0,0,1,827.1815795898438,933.020751953125)" style="cursor: default;"><rect joint-selector="rect" id="v-7406" fill="#ffffff" rx="3" ry="3" x="-92.203125" y="-31.21875" width="184.40625" height="57.78125" pointer-events="none"  style="display: block;"></rect><text joint-selector="text" id="v-7405" font-size="24px" xml:space="preserve" fill="#444444" text-anchor="middle" pointer-events="none" font-family="Tahoma, Verdana, Helvetica, Arial" font-weight="normal"  style="display: block;"><tspan dy="-0.3em" >Uses to configure</tspan><tspan dy="1.2em" x="0" >system</tspan></text></g><g id="v-7404"  label-idx="1" cursor="move" transform="matrix(1,0,0,1,817.1815795898438,959.4207153320312)" style="cursor: default;"><rect joint-selector="rect" id="v-7408" fill="#ffffff" rx="3" ry="3" x="0" y="0" width="0" height="0"  display="none"></rect><text joint-selector="text" id="v-7407" fill="#000000" font-size="14" text-anchor="middle" text-vertical-anchor="middle" pointer-events="none"></text></g></g></g><!--z-index:27--><!--z-index:28--><!--z-index:29--><!--z-index:30--><!--z-index:31--><!--z-index:32--><!--z-index:33--><!--z-index:34--><!--z-index:35--><!--z-index:36--><!--z-index:37--><!--z-index:38--><!--z-index:39--><!--z-index:40--><!--z-index:41--><!--z-index:42--><!--z-index:43--><!--z-index:44--><!--z-index:45--><!--z-index:46--><!--z-index:47--><!--z-index:48--><!--z-index:49--><!--z-index:50--><!--z-index:51--><!--z-index:52--><!--z-index:53--><!--z-index:54--><!--z-index:55--><!--z-index:56--><!--z-index:57--><!--z-index:58--><!--z-index:59--><!--z-index:60--><!--z-index:61--><!--z-index:62--><!--z-index:63--><!--z-index:64--><!--z-index:65--><!--z-index:66--><!--z-index:67--><!--z-index:68--><!--z-index:69--><!--z-index:70--><!--z-index:71--><!--z-index:72--><!--z-index:73--><!--z-index:74--><!--z-index:75--><!--z-index:76--><!--z-index:77--><!--z-index:78--><!--z-index:79--><!--z-index:80--><!--z-index:81--><!--z-index:82--><!--z-index:83--><!--z-index:84--><!--z-index:85--><!--z-index:86--><!--z-index:87--><!--z-index:88--><!--z-index:89--><!--z-index:90--><!--z-index:91--><!--z-index:92--><!--z-index:93--><!--z-index:94--><!--z-index:95--><!--z-index:96--><!--z-index:97--><!--z-index:98--><!--z-index:99--><!--z-index:100--><!--z-index:101--><!--z-index:102--><!--z-index:103--><!--z-index:104--><!--z-index:105--><!--z-index:106--><!--z-index:107--><!--z-index:108--><!--z-index:109--><!--z-index:110--><!--z-index:111--><!--z-index:112--><!--z-index:113--><!--z-index:114--><!--z-index:115--><!--z-index:116--><!--z-index:117--><!--z-index:118--><!--z-index:119--><!--z-index:120--><!--z-index:121--><!--z-index:122--><!--z-index:123--><!--z-index:124--><!--z-index:125--><!--z-index:126--><!--z-index:127--><!--z-index:128--><!--z-index:129--><!--z-index:130--><!--z-index:131--></g><g  style="-webkit-user-select: none;"></g><g ></g><g  display="none"><g ><g  data-tool-name="vertices" ><path fill="none" stroke="transparent" stroke-width="10" cursor="cell" joint-selector="connection" d="M 1363.32 440 L 1551 298 C 1556.3333333333333 294 1562.3333333333333 292 1569 292 L 1729 292" ></path><circle r="6" fill="#33334F" stroke="#FFFFFF" stroke-width="2" cursor="move"  transform="matrix(2,0,0,2,1559,292)" ></circle></g></g><g ><g  data-tool-name="vertices" ><path fill="none" stroke="transparent" stroke-width="10" cursor="cell" joint-selector="connection" d="M 1390 619.7 L 1549 641 C 1555.6666666666665 641.6666666666666 1562.3333333333333 642 1569 642 L 1729 642" ></path><circle r="6" fill="#33334F" stroke="#FFFFFF" stroke-width="2" cursor="move"  transform="matrix(2,0,0,2,1559,642)" ></circle></g></g><g ><g  data-tool-name="vertices" ><path fill="none" stroke="transparent" stroke-width="10" cursor="cell" joint-selector="connection" d="M 1312.01 740 L 1552 985 C 1556.6666666666665 989.6666666666665 1562.3333333333333 991.9999999999999 1569 992 L 1729 992" ></path><circle r="6" fill="#33334F" stroke="#FFFFFF" stroke-width="2" cursor="move"  transform="matrix(2,0,0,2,1559,992)" ></circle></g></g><g ><g  data-tool-name="vertices" ><path fill="none" stroke="transparent" stroke-width="10" cursor="cell" joint-selector="connection" d="M 515 406.61 L 760 537 C 766 540.3333333333333 772.3333333333333 542.3333333333333 779 543 L 940 562.73" ></path><circle r="6" fill="#33334F" stroke="#FFFFFF" stroke-width="2" cursor="move"  transform="matrix(2,0,0,2,769,542)" ></circle></g></g><g ><g  data-tool-name="vertices" ><path fill="none" stroke="transparent" stroke-width="10" cursor="cell" joint-selector="connection" d="M 580 995.89 L 759 992 C 765.6666666666666 991.9999999999999 771.3333333333333 989.6666666666665 776 985 L 1017.24 740" ></path><circle r="6" fill="#33334F" stroke="#FFFFFF" stroke-width="2" cursor="move"  transform="matrix(2,0,0,2,769,992)" ></circle></g></g><!--z-index:1--></g></g></svg>